<?xml version="1.0" encoding="utf-8"?>
<!-- Generator: Adobe Illustrator 16.0.0, SVG Export Plug-In . SVG Version: 6.00 Build 0)  -->
<!DOCTYPE svg PUBLIC "-//W3C//DTD SVG 1.1//EN" "http://www.w3.org/Graphics/SVG/1.1/DTD/svg11.dtd">
<svg version="1.1" id="Layer_1" xmlns="http://www.w3.org/2000/svg" xmlns:xlink="http://www.w3.org/1999/xlink" x="0px" y="0px"
	 width="489px" height="97px" viewBox="0 0 489 97" enable-background="new 0 0 489 97" xml:space="preserve">
<g>
	<rect x="55.95" y="55.506" fill="#038E46" width="21.625" height="21.625"/>
	<rect x="12.702" y="55.506" fill="#3DB54A" width="21.624" height="21.625"/>
	
		<rect x="9.151" y="10.051" transform="matrix(0.7071 -0.7071 0.7071 0.7071 -7.481 16.7884)" fill="#038E46" width="14.748" height="14.748"/>
	<g>
		<path fill="#3DB54A" d="M148.882,46.781c0,4.734-0.739,8.867-2.21,12.391c-1.473,3.525-3.565,6.445-6.274,8.76
			c-2.711,2.313-6.011,4.052-9.905,5.207c-3.895,1.158-8.261,1.737-13.101,1.737c-2.21,0-4.789-0.092-7.734-0.275
			c-2.948-0.187-5.84-0.566-8.682-1.145V20.183c2.841-0.526,5.801-0.879,8.878-1.065c3.079-0.184,5.722-0.276,7.932-0.276
			c4.683,0,8.93,0.526,12.745,1.58c3.815,1.05,7.09,2.708,9.827,4.971c2.735,2.265,4.84,5.157,6.313,8.681
			C148.143,37.599,148.882,41.835,148.882,46.781z M113.288,64.145c0.578,0.053,1.249,0.092,2.012,0.117
			c0.762,0.027,1.669,0.039,2.722,0.039c6.156,0,10.721-1.552,13.693-4.655c2.972-3.104,4.459-7.392,4.459-12.864
			c0-5.736-1.42-10.076-4.262-13.023c-2.841-2.945-7.339-4.42-13.496-4.42c-0.842,0-1.71,0.015-2.604,0.04
			c-0.896,0.027-1.737,0.094-2.525,0.199V64.145z"/>
		<path fill="#2DB24B" d="M162.281,74.166h-11.759V32.655h11.759V74.166z"/>
		<path fill="#2DB24B" d="M201.328,68.957c0,6.788-1.723,11.824-5.169,15.113c-3.446,3.287-8.773,4.934-15.982,4.934
			c-2.525,0-5.05-0.226-7.576-0.672c-2.525-0.447-4.867-1.039-7.024-1.775l2.052-9.865c1.842,0.737,3.775,1.313,5.801,1.738
			c2.026,0.417,4.328,0.631,6.906,0.631c3.367,0,5.748-0.74,7.143-2.211c1.393-1.475,2.091-3.366,2.091-5.684v-1.499
			c-1.263,0.578-2.565,1.015-3.908,1.304c-1.341,0.287-2.801,0.434-4.379,0.434c-5.735,0-10.128-1.697-13.18-5.092
			c-3.052-3.393-4.577-8.14-4.577-14.245c0-3.05,0.473-5.825,1.42-8.325c0.946-2.498,2.328-4.644,4.143-6.431
			s4.038-3.171,6.669-4.144c2.63-0.974,5.603-1.46,8.917-1.46c1.421,0,2.881,0.067,4.381,0.196c1.499,0.134,2.986,0.303,4.459,0.514
			c1.472,0.208,2.881,0.459,4.222,0.75c1.342,0.291,2.538,0.591,3.59,0.906V68.957z M175.521,52.067
			c0,6.577,2.657,9.867,7.971,9.867c1.21,0,2.341-0.159,3.394-0.477c1.053-0.315,1.947-0.683,2.684-1.103V41.572
			c-0.58-0.104-1.263-0.199-2.052-0.275c-0.79-0.08-1.71-0.12-2.762-0.12c-3.105,0-5.42,1.026-6.945,3.077
			C176.283,46.307,175.521,48.912,175.521,52.067z"/>
		<path fill="#2DB24B" d="M216.306,74.166h-11.759V32.655h11.759V74.166z"/>
		<path fill="#2DB24B" d="M219.129,22.313l11.759-1.892v12.233h14.128v9.783h-14.128v14.603c0,2.473,0.435,4.447,1.302,5.92
			c0.869,1.472,2.617,2.209,5.249,2.209c1.262,0,2.564-0.119,3.908-0.357c1.341-0.236,2.565-0.563,3.67-0.986l1.656,9.155
			c-1.42,0.581-2.998,1.08-4.734,1.5c-1.737,0.419-3.868,0.63-6.393,0.63c-3.21,0-5.868-0.434-7.972-1.301
			c-2.104-0.866-3.788-2.078-5.05-3.63c-1.263-1.55-2.144-3.435-2.644-5.644c-0.501-2.21-0.75-4.656-0.75-7.34V22.313z"/>
		<path fill="#2DB24B" d="M262.615,31.548c3.471,0,6.364,0.395,8.681,1.185c2.314,0.79,4.169,1.922,5.564,3.394
			c1.393,1.473,2.38,3.263,2.959,5.366c0.578,2.105,0.867,4.447,0.867,7.024v24.465c-1.684,0.37-4.023,0.802-7.024,1.302
			c-2.997,0.501-6.628,0.752-10.889,0.752c-2.684,0-5.119-0.238-7.301-0.711c-2.184-0.477-4.064-1.251-5.643-2.328
			c-1.579-1.08-2.79-2.486-3.63-4.224c-0.843-1.735-1.263-3.866-1.263-6.392c0-2.421,0.484-4.472,1.46-6.155
			c0.973-1.683,2.274-3.024,3.906-4.024c1.631-1.001,3.499-1.724,5.604-2.173c2.103-0.444,4.287-0.671,6.55-0.671
			c1.526,0,2.88,0.067,4.064,0.199c1.185,0.131,2.142,0.303,2.88,0.512v-1.105c0-1.996-0.604-3.6-1.815-4.812
			c-1.21-1.211-3.316-1.817-6.314-1.817c-1.999,0-3.973,0.146-5.919,0.435c-1.947,0.291-3.63,0.698-5.05,1.224l-1.5-9.47
			c0.683-0.211,1.54-0.435,2.566-0.673c1.024-0.236,2.142-0.444,3.354-0.631c1.21-0.181,2.486-0.34,3.827-0.472
			C259.892,31.615,261.246,31.548,262.615,31.548z M263.56,65.957c1.157,0,2.263-0.024,3.315-0.076
			c1.054-0.055,1.896-0.133,2.526-0.238v-8.92c-0.473-0.104-1.185-0.208-2.13-0.314c-0.949-0.105-1.815-0.157-2.606-0.157
			c-1.105,0-2.144,0.067-3.116,0.196c-0.975,0.132-1.829,0.383-2.566,0.75c-0.736,0.367-1.315,0.869-1.736,1.5
			c-0.422,0.631-0.63,1.42-0.63,2.369c0,1.842,0.618,3.115,1.854,3.826C259.707,65.602,261.402,65.957,263.56,65.957z"/>
		<path fill="#2DB24B" d="M300.084,74.953c-3.419-0.053-6.195-0.42-8.326-1.105c-2.13-0.682-3.816-1.641-5.052-2.877
			s-2.078-2.736-2.525-4.5c-0.448-1.76-0.67-3.749-0.67-5.959V14.817l11.758-1.895v45.223c0,1.054,0.08,2.001,0.239,2.841
			c0.156,0.842,0.46,1.552,0.906,2.131c0.448,0.58,1.092,1.053,1.934,1.42c0.84,0.369,1.973,0.605,3.394,0.71L300.084,74.953z"/>
		<path d="M303.95,74.166V19.473h36.621v10.339h-24.308v11.444h21.624v10.337h-21.624v22.572H303.95z"/>
		<path d="M365.342,43.071c-1.053-0.263-2.287-0.541-3.707-0.829c-1.42-0.288-2.949-0.435-4.578-0.435
			c-0.739,0-1.62,0.067-2.644,0.198c-1.027,0.132-1.804,0.275-2.328,0.433v31.728h-11.759V34.863
			c2.104-0.735,4.59-1.433,7.458-2.091c2.867-0.658,6.063-0.986,9.588-0.986c0.633,0,1.393,0.04,2.291,0.117
			c0.894,0.08,1.786,0.187,2.683,0.315c0.894,0.132,1.788,0.291,2.683,0.474c0.895,0.184,1.657,0.41,2.289,0.673L365.342,43.071z"/>
		<path d="M406.383,53.331c0,3.263-0.473,6.247-1.42,8.956c-0.947,2.712-2.317,5.025-4.104,6.945
			c-1.789,1.922-3.933,3.406-6.432,4.459s-5.3,1.58-8.404,1.58c-3.051,0-5.828-0.527-8.327-1.58c-2.5-1.053-4.645-2.537-6.433-4.459
			c-1.788-1.92-3.182-4.233-4.182-6.945c-1-2.709-1.5-5.693-1.5-8.956c0-3.26,0.513-6.235,1.538-8.919
			c1.027-2.684,2.448-4.973,4.263-6.865c1.815-1.895,3.972-3.367,6.471-4.42s5.221-1.579,8.169-1.579
			c2.997,0,5.747,0.526,8.246,1.579c2.498,1.053,4.643,2.525,6.434,4.42c1.788,1.892,3.182,4.181,4.183,6.865
			C405.883,47.096,406.383,50.071,406.383,53.331z"/>
		<path d="M408.899,34.073c1.999-0.576,4.578-1.115,7.735-1.617c3.157-0.499,6.472-0.75,9.943-0.75c3.524,0,6.458,0.459,8.801,1.38
			c2.341,0.921,4.195,2.222,5.563,3.908c1.367,1.684,2.342,3.682,2.921,5.997c0.577,2.314,0.868,4.891,0.868,7.734v23.439h-11.76
			v-22.02c0-3.789-0.501-6.471-1.499-8.049c-1.001-1.58-2.868-2.37-5.604-2.37c-0.841,0-1.735,0.04-2.683,0.119
			c-0.947,0.08-1.789,0.171-2.525,0.276v32.043h-11.76V34.073z"/>
		<path d="M447.161,22.313l11.757-1.892v12.233h14.129v9.783h-14.129v14.603c0,2.473,0.435,4.447,1.304,5.92
			c0.868,1.472,2.616,2.209,5.248,2.209c1.263,0,2.564-0.119,3.907-0.357c1.341-0.236,2.564-0.563,3.67-0.986l1.656,9.155
			c-1.421,0.581-3,1.08-4.734,1.5c-1.736,0.419-3.868,0.63-6.394,0.63c-3.209,0-5.867-0.434-7.971-1.301
			c-2.104-0.866-3.787-2.078-5.05-3.63c-1.265-1.55-2.146-3.435-2.646-5.644c-0.499-2.21-0.747-4.656-0.747-7.34V22.313z"/>
		<polygon fill="#EC2127" points="397.364,54.115 380.987,64.162 380.987,44.07 397.364,54.115 		"/>
		<rect x="99.449" y="66.318" fill="#068241" width="8.173" height="8.173"/>
	</g>
	<rect x="55.95" y="12.257" fill="#3DB54A" width="21.625" height="21.625"/>
	
		<rect x="11.596" y="32.599" transform="matrix(0.9358 -0.3525 0.3525 0.9358 -13.0368 9.4897)" fill="#2BA549" width="15.883" height="15.883"/>
	<rect x="55.95" y="33.882" fill="#2BA549" width="21.625" height="21.624"/>
	
		<rect x="33.821" y="11.264" transform="matrix(0.3533 0.9355 -0.9355 0.3533 45.6738 -26.777)" fill="#2BA549" width="16.766" height="16.766"/>
	<rect x="34.325" y="55.506" fill="#2BA549" width="21.625" height="21.625"/>
	<rect x="34.325" y="33.882" fill="#3DB54A" width="21.625" height="21.624"/>
</g>
</svg>
